<svg viewBox="0 0 900 530" xmlns="http://www.w3.org/2000/svg" font-family="'Segoe UI', Arial, sans-serif">
  <text x="450" y="28" text-anchor="middle" font-size="18" font-weight="bold" fill="#1a1a2e">Change-Point Detection: CUSUM, PELT &amp; BOCPD</text>

  <!-- Shared signal at top -->
  <rect x="15" y="45" width="870" height="120" rx="8" fill="#fafafa" stroke="#ccc" stroke-width="1"/>
  <text x="450" y="65" text-anchor="middle" font-size="12" font-weight="bold" fill="#333">Input: Process Signal with Two Change Points</text>

  <line x1="50" y1="140" x2="850" y2="140" stroke="#888" stroke-width="1"/>
  <line x1="50" y1="140" x2="50" y2="72" stroke="#888" stroke-width="1"/>

  <!-- Segment 1: mean ~110 -->
  <polyline points="60,108 80,112 100,106 120,110 140,108 160,112 180,105 200,110 220,108 240,112 260,106 280,110" fill="none" stroke="#3366cc" stroke-width="2"/>
  <!-- Segment 2: mean ~95 (shift down) -->
  <polyline points="280,110 300,96 320,92 340,98 360,94 380,90 400,96 420,92 440,95 460,90 480,94 500,92 520,96" fill="none" stroke="#3366cc" stroke-width="2"/>
  <!-- Segment 3: mean ~80, more variance -->
  <polyline points="520,96 540,82 560,76 580,85 600,72 620,80 640,74 660,86 680,78 700,70 720,82 740,76 760,84 780,72 800,80 820,76 840,82" fill="none" stroke="#3366cc" stroke-width="2"/>

  <!-- Change point markers -->
  <line x1="280" y1="70" x2="280" y2="140" stroke="#e74c3c" stroke-width="2" stroke-dasharray="4,3"/>
  <text x="280" y="155" text-anchor="middle" font-size="9" fill="#e74c3c" font-weight="bold">CP₁</text>
  <line x1="520" y1="70" x2="520" y2="140" stroke="#e74c3c" stroke-width="2" stroke-dasharray="4,3"/>
  <text x="520" y="155" text-anchor="middle" font-size="9" fill="#e74c3c" font-weight="bold">CP₂</text>

  <!-- Segment labels -->
  <text x="170" y="84" text-anchor="middle" font-size="9" fill="#666">μ₁, σ₁</text>
  <text x="400" y="84" text-anchor="middle" font-size="9" fill="#666">μ₂ (shift down)</text>
  <text x="680" y="86" text-anchor="middle" font-size="9" fill="#666">μ₃, σ₃↑ (mean + variance shift)</text>

  <!-- METHOD 1: CUSUM -->
  <rect x="15" y="175" width="280" height="180" rx="8" fill="#e8f4fd" stroke="#4a90d9" stroke-width="1.5"/>
  <text x="155" y="198" text-anchor="middle" font-size="13" font-weight="bold" fill="#2c5282">CUSUM</text>
  <text x="155" y="213" text-anchor="middle" font-size="9" fill="#4a6fa5">Cumulative Sum Control Chart</text>

  <!-- CUSUM statistic plot -->
  <line x1="35" y1="330" x2="275" y2="330" stroke="#888" stroke-width="1"/>
  <line x1="35" y1="330" x2="35" y2="225" stroke="#888" stroke-width="1"/>

  <!-- Cumulative sum rising after change -->
  <polyline points="45,320 65,318 85,322 105,316 125,320 145,315 155,300 165,280 175,265 185,255 195,242 205,250 215,240 225,248 235,235 245,240 255,228 265,232" fill="none" stroke="#4a90d9" stroke-width="2"/>

  <!-- Threshold -->
  <line x1="35" y1="260" x2="275" y2="260" stroke="#e74c3c" stroke-width="1" stroke-dasharray="4,3"/>
  <text x="270" y="255" text-anchor="end" font-size="8" fill="#e74c3c">h (threshold)</text>

  <!-- Alert marker -->
  <circle cx="185" cy="255" r="4" fill="#e74c3c"/>
  <text x="195" y="250" font-size="8" fill="#e74c3c" font-weight="bold">Alert!</text>

  <text x="155" y="348" text-anchor="middle" font-size="9" fill="#333" font-weight="bold">Online • Sequential • One-at-a-time</text>

  <!-- METHOD 2: PELT -->
  <rect x="310" y="175" width="280" height="180" rx="8" fill="#e8fde8" stroke="#27ae60" stroke-width="1.5"/>
  <text x="450" y="198" text-anchor="middle" font-size="13" font-weight="bold" fill="#1e7a1e">PELT</text>
  <text x="450" y="213" text-anchor="middle" font-size="9" fill="#27ae60">Pruned Exact Linear Time</text>

  <!-- Segmented signal -->
  <line x1="330" y1="330" x2="570" y2="330" stroke="#888" stroke-width="1"/>
  <line x1="330" y1="330" x2="330" y2="225" stroke="#888" stroke-width="1"/>

  <!-- Three segments with fitted means -->
  <polyline points="340,280 360,283 380,278 400,282 410,280" fill="none" stroke="#aaa" stroke-width="1"/>
  <line x1="340" y1="280" x2="410" y2="280" stroke="#27ae60" stroke-width="2"/>

  <polyline points="415,295 430,292 445,298 460,294 475,296 490,293" fill="none" stroke="#aaa" stroke-width="1"/>
  <line x1="415" y1="295" x2="490" y2="295" stroke="#27ae60" stroke-width="2"/>

  <polyline points="495,308 510,302 525,312 540,305 555,310" fill="none" stroke="#aaa" stroke-width="1"/>
  <line x1="495" y1="308" x2="560" y2="308" stroke="#27ae60" stroke-width="2"/>

  <!-- Change point lines -->
  <line x1="412" y1="240" x2="412" y2="325" stroke="#e74c3c" stroke-width="1.5" stroke-dasharray="3,2"/>
  <line x1="493" y1="240" x2="493" y2="325" stroke="#e74c3c" stroke-width="1.5" stroke-dasharray="3,2"/>

  <!-- Cost annotation -->
  <text x="375" y="255" text-anchor="middle" font-size="8" fill="#1e7a1e">C₁</text>
  <text x="452" y="255" text-anchor="middle" font-size="8" fill="#1e7a1e">C₂</text>
  <text x="528" y="255" text-anchor="middle" font-size="8" fill="#1e7a1e">C₃</text>
  <text x="450" y="245" text-anchor="middle" font-size="8" fill="#555">min Σ C(seg) + penalty</text>

  <text x="450" y="348" text-anchor="middle" font-size="9" fill="#333" font-weight="bold">Offline • Batch • All CPs at once</text>

  <!-- METHOD 3: BOCPD -->
  <rect x="605" y="175" width="280" height="180" rx="8" fill="#f5f0ff" stroke="#7c3aed" stroke-width="1.5"/>
  <text x="745" y="198" text-anchor="middle" font-size="13" font-weight="bold" fill="#5b21b6">BOCPD</text>
  <text x="745" y="213" text-anchor="middle" font-size="9" fill="#7c3aed">Bayesian Online Change-Point Detection</text>

  <!-- Run-length probability heatmap (simplified) -->
  <line x1="625" y1="330" x2="865" y2="330" stroke="#888" stroke-width="1"/>
  <line x1="625" y1="330" x2="625" y2="225" stroke="#888" stroke-width="1"/>
  <text x="745" y="342" text-anchor="middle" font-size="8" fill="#666">Time</text>
  <text x="618" y="278" text-anchor="middle" font-size="8" fill="#666" transform="rotate(-90,618,278)">Run length</text>

  <!-- Simplified heatmap: diagonal lines showing run length growing, resetting at CPs -->
  <!-- Run 1 -->
  <g opacity="0.6">
    <rect x="635" y="320" width="8" height="8" fill="#7c3aed" opacity="0.8"/>
    <rect x="645" y="312" width="8" height="16" fill="#7c3aed" opacity="0.7"/>
    <rect x="655" y="304" width="8" height="24" fill="#7c3aed" opacity="0.6"/>
    <rect x="665" y="296" width="8" height="32" fill="#7c3aed" opacity="0.5"/>
    <rect x="675" y="288" width="8" height="40" fill="#7c3aed" opacity="0.4"/>
    <rect x="685" y="280" width="8" height="48" fill="#7c3aed" opacity="0.35"/>
    <rect x="695" y="272" width="8" height="56" fill="#7c3aed" opacity="0.3"/>
    <rect x="705" y="264" width="8" height="64" fill="#7c3aed" opacity="0.25"/>
  </g>
  <!-- Reset at CP1 -->
  <rect x="715" y="320" width="8" height="8" fill="#e74c3c" opacity="0.9"/>
  <!-- Run 2 -->
  <g opacity="0.6">
    <rect x="725" y="312" width="8" height="16" fill="#7c3aed" opacity="0.7"/>
    <rect x="735" y="304" width="8" height="24" fill="#7c3aed" opacity="0.6"/>
    <rect x="745" y="296" width="8" height="32" fill="#7c3aed" opacity="0.5"/>
    <rect x="755" y="288" width="8" height="40" fill="#7c3aed" opacity="0.4"/>
    <rect x="765" y="280" width="8" height="48" fill="#7c3aed" opacity="0.35"/>
    <rect x="775" y="272" width="8" height="56" fill="#7c3aed" opacity="0.3"/>
    <rect x="785" y="264" width="8" height="64" fill="#7c3aed" opacity="0.25"/>
  </g>
  <!-- Reset at CP2 -->
  <rect x="795" y="320" width="8" height="8" fill="#e74c3c" opacity="0.9"/>
  <!-- Run 3 -->
  <g opacity="0.6">
    <rect x="805" y="312" width="8" height="16" fill="#7c3aed" opacity="0.7"/>
    <rect x="815" y="304" width="8" height="24" fill="#7c3aed" opacity="0.6"/>
    <rect x="825" y="296" width="8" height="32" fill="#7c3aed" opacity="0.5"/>
    <rect x="835" y="288" width="8" height="40" fill="#7c3aed" opacity="0.4"/>
    <rect x="845" y="280" width="8" height="48" fill="#7c3aed" opacity="0.35"/>
    <rect x="855" y="272" width="8" height="56" fill="#7c3aed" opacity="0.3"/>
  </g>

  <text x="717" y="256" text-anchor="middle" font-size="8" fill="#e74c3c" font-weight="bold">reset</text>
  <text x="797" y="256" text-anchor="middle" font-size="8" fill="#e74c3c" font-weight="bold">reset</text>

  <text x="745" y="348" text-anchor="middle" font-size="9" fill="#333" font-weight="bold">Online • Bayesian • Probabilistic</text>

  <!-- COMPARISON TABLE -->
  <rect x="15" y="370" width="870" height="145" rx="8" fill="#fff8e1" stroke="#f59e0b" stroke-width="1.5"/>
  <text x="450" y="393" text-anchor="middle" font-size="13" font-weight="bold" fill="#92400e">Method Comparison</text>

  <!-- Headers -->
  <text x="130" y="415" text-anchor="middle" font-size="10" fill="#555" font-weight="bold">Property</text>
  <text x="310" y="415" text-anchor="middle" font-size="10" fill="#2c5282" font-weight="bold">CUSUM</text>
  <text x="530" y="415" text-anchor="middle" font-size="10" fill="#1e7a1e" font-weight="bold">PELT</text>
  <text x="750" y="415" text-anchor="middle" font-size="10" fill="#5b21b6" font-weight="bold">BOCPD</text>

  <line x1="30" y1="422" x2="870" y2="422" stroke="#ddd" stroke-width="1"/>

  <!-- Row 1 -->
  <text x="130" y="440" text-anchor="middle" font-size="9" fill="#333">Mode</text>
  <text x="310" y="440" text-anchor="middle" font-size="9" fill="#333">Online (streaming)</text>
  <text x="530" y="440" text-anchor="middle" font-size="9" fill="#333">Offline (batch)</text>
  <text x="750" y="440" text-anchor="middle" font-size="9" fill="#333">Online (streaming)</text>

  <!-- Row 2 -->
  <text x="130" y="458" text-anchor="middle" font-size="9" fill="#333">Output</text>
  <text x="310" y="458" text-anchor="middle" font-size="9" fill="#333">Binary alarm</text>
  <text x="530" y="458" text-anchor="middle" font-size="9" fill="#333">Exact CP locations</text>
  <text x="750" y="458" text-anchor="middle" font-size="9" fill="#333">P(change) at each t</text>

  <!-- Row 3 -->
  <text x="130" y="476" text-anchor="middle" font-size="9" fill="#333">Tuning</text>
  <text x="310" y="476" text-anchor="middle" font-size="9" fill="#333">h (threshold), drift</text>
  <text x="530" y="476" text-anchor="middle" font-size="9" fill="#333">Penalty (BIC/manual)</text>
  <text x="750" y="476" text-anchor="middle" font-size="9" fill="#333">Hazard function, prior</text>

  <!-- Row 4 -->
  <text x="130" y="494" text-anchor="middle" font-size="9" fill="#333">Best for</text>
  <text x="310" y="494" text-anchor="middle" font-size="9" fill="#333">Real-time mean shifts</text>
  <text x="530" y="494" text-anchor="middle" font-size="9" fill="#333">Historical segmentation</text>
  <text x="750" y="494" text-anchor="middle" font-size="9" fill="#333">Uncertainty-aware monitoring</text>

  <!-- Row 5 -->
  <text x="130" y="510" text-anchor="middle" font-size="9" fill="#333">Python</text>
  <text x="310" y="510" text-anchor="middle" font-size="9" fill="#333" font-family="monospace">numpy (manual)</text>
  <text x="530" y="510" text-anchor="middle" font-size="9" fill="#333" font-family="monospace">ruptures</text>
  <text x="750" y="510" text-anchor="middle" font-size="9" fill="#333" font-family="monospace">bayesian_changepoint</text>
</svg>
